HIERARCHY
ROOT Hips
{
	OFFSET -3.958830 18.904000 13.208200
	CHANNELS 6 Xposition Yposition Zposition Zrotation Yrotation Xrotation 
	JOINT LHipJoint
	{
		OFFSET 0.000000 0.000000 0.000000
		CHANNELS 3 Zrotation Yrotation Xrotation
		JOINT LeftUpLeg
		{
			OFFSET 1.800000 -1.400000 0.085000
			CHANNELS 3 Zrotation Yrotation Xrotation
			JOINT LeftLeg
			{
				OFFSET 2.215000 -6.000000 0.000000
				CHANNELS 3 Zrotation Yrotation Xrotation
				JOINT LeftFoot
				{
					OFFSET 2.500000 -6.900000 0.000000
					CHANNELS 3 Zrotation Yrotation Xrotation
					JOINT LeftToeBase
					{
						OFFSET 0.200000 -0.500000 1.950000
						CHANNELS 3 Zrotation Yrotation Xrotation
						End Site
						{
							OFFSET 0.000000 0.000000 0.000000
						}
					}
				}
			}
		}
	}
	JOINT RHipJoint
	{
		OFFSET 0.000000 0.000000 0.000000
		CHANNELS 3 Zrotation Yrotation Xrotation
		JOINT RightUpLeg
		{
			OFFSET -1.800000 -1.400000 0.085000
			CHANNELS 3 Zrotation Yrotation Xrotation
			JOINT RightLeg
			{
				OFFSET -2.215000 -6.000000 0.000000
				CHANNELS 3 Zrotation Yrotation Xrotation
				JOINT RightFoot
				{
					OFFSET -2.500000 -6.900000 0.000000
					CHANNELS 3 Zrotation Yrotation Xrotation
					JOINT RightToeBase
					{
						OFFSET -0.200000 -0.500000 1.950000
						CHANNELS 3 Zrotation Yrotation Xrotation
						End Site
						{
							OFFSET 0.000000 0.000000 0.000000
						}
					}
				}
			}
		}
	}
	JOINT LowerBack
	{
		OFFSET 0.000000 0.000000 0.000000
		CHANNELS 3 Zrotation Yrotation Xrotation
		JOINT Spine
		{
			OFFSET -0.087000 1.940000 -0.288900
			CHANNELS 3 Zrotation Yrotation Xrotation
			JOINT Spine1
			{
				OFFSET 0.000000 1.950000 0.060000
				CHANNELS 3 Zrotation Yrotation Xrotation
				JOINT Neck
				{
					OFFSET 0.000000 0.000000 0.000000
					CHANNELS 3 Zrotation Yrotation Xrotation
					JOINT Neck1
					{
						OFFSET 0.000000 1.600000 0.340000
						CHANNELS 3 Zrotation Yrotation Xrotation
						JOINT Head
						{
							OFFSET 0.000000 1.667000 -0.240000
							CHANNELS 3 Zrotation Yrotation Xrotation
							End Site
							{
								OFFSET 0.000000 0.000000 0.000000
							}
						}
					}
				}
				JOINT LeftShoulder
				{
					OFFSET 0.000000 0.000000 0.000000
					CHANNELS 3 Zrotation Yrotation Xrotation
					JOINT LeftArm
					{
						OFFSET 2.700000 1.550000 -0.730000
						CHANNELS 3 Zrotation Yrotation Xrotation
						JOINT LeftForeArm
						{
							OFFSET 5.450000 0.000000 0.000000
							CHANNELS 3 Zrotation Yrotation Xrotation
							JOINT LeftHand
							{
								OFFSET 3.450000 0.000000 0.000000
								CHANNELS 3 Zrotation Yrotation Xrotation
								JOINT LeftHandIndex1
								{
									OFFSET 0.750000 0.000000 0.000000
									CHANNELS 3 Zrotation Yrotation Xrotation
									End Site
									{
										OFFSET 0.000000 0.000000 0.000000
									}
								}
							}
						}
					}
				}
				JOINT RightShoulder
				{
					OFFSET 0.000000 0.000000 0.000000
					CHANNELS 3 Zrotation Yrotation Xrotation
					JOINT RightArm
					{
						OFFSET -2.700000 1.550000 -0.730000
						CHANNELS 3 Zrotation Yrotation Xrotation
						JOINT RightForeArm
						{
							OFFSET -5.450000 0.000000 0.000000
							CHANNELS 3 Zrotation Yrotation Xrotation
							JOINT RightHand
							{
								OFFSET -3.450000 0.000000 0.000000
								CHANNELS 3 Zrotation Yrotation Xrotation
								JOINT RightHandIndex1
								{
									OFFSET -0.750000 0.000000 0.000000
									CHANNELS 3 Zrotation Yrotation Xrotation
									End Site
									{
										OFFSET 0.000000 0.000000 0.000000
									}
								}
							}
						}
					}
				}
			}
		}
	}
}
MOTION
Frames: 10
Frame Time: 0.016667
1.900110 15.495290 -1.801300 2.277003 5.296416 9.714751 -15.220224 10.896684 3.643610 36.044477 -0.510814 -24.509892 -3.694341 6.735863 10.500619 0.038979 5.436988 2.436949 0.201810 0.150560 0.153910 18.855246 -7.907088 4.892501 -38.332468 0.093320 -44.719955 21.348076 -26.501420 52.605300 -1.465459 -11.070444 0.471442 0.132340 0.037930 0.082460 -4.295783 -2.050016 -9.446435 17.885884 -10.244058 28.330985 -12.691648 -4.081443 1.657037 3.471218 -5.316761 -10.655653 -10.431709 1.167022 26.598647 -4.498310 0.645280 -8.539210 -27.506261 -8.528766 3.433369 -1.985251 8.091078 -0.080829 9.633390 4.323806 -0.066020 -3.995485 2.928300 0.077170 0.055790 -0.010410 0.057290 19.920128 10.717144 9.089494 5.143005 -8.232042 -0.627261 -6.899192 2.381398 -0.189012 2.706873 -1.324835 -0.026430 0.066260 -0.044760 -0.060520 
1.945070 15.483680 -1.811710 2.277893 5.289511 9.636192 -15.229607 10.905873 3.639093 36.042047 -0.449257 -24.794367 -4.066486 7.023298 11.559574 0.027513 5.528940 2.402113 0.195710 0.137410 0.160960 18.851973 -7.894425 4.906318 -38.575440 0.006471 -44.808823 21.127243 -26.544987 52.894188 -1.472639 -11.088547 0.470900 0.126120 0.034090 0.073020 -4.278275 -2.070044 -9.460669 17.714122 -10.297181 28.959532 -12.638683 -4.112720 1.713246 3.526201 -5.227913 -10.700831 -10.318774 1.297467 26.850482 -4.431790 0.813160 -8.857120 -27.212334 -8.293825 3.479710 -2.288412 8.697761 -0.118459 10.037941 4.301691 -0.038397 -3.992194 2.908332 0.097600 0.047660 -0.006170 0.051150 19.533582 10.467505 9.049082 5.718299 -8.398194 -0.749052 -7.196883 2.367464 -0.155374 2.706545 -1.304176 -0.039980 0.078580 -0.040570 -0.071310 
2.040490 15.447330 -1.833440 2.188040 5.192839 9.468080 -15.250744 10.919826 3.648599 36.105825 -0.325060 -25.429787 -4.788931 7.670052 13.882817 0.040886 5.741941 2.316634 0.191770 0.126750 0.169220 18.843372 -7.876672 4.917374 -39.120893 -0.244645 -44.858732 20.671673 -26.414321 53.041345 -1.464394 -11.062396 0.474626 0.112460 0.016520 0.072490 -4.238494 -2.104596 -9.491076 17.504521 -10.255716 29.873827 -12.287529 -4.069496 1.895715 3.573204 -5.091660 -10.732906 -10.166945 0.875521 27.390983 -4.574680 0.548800 -8.842940 -26.649034 -7.731945 3.487213 -2.869608 9.663216 -0.132973 9.617784 4.720329 -0.033325 -3.980417 2.900321 0.108030 0.034070 0.004100 0.043450 18.901599 9.927094 9.014640 6.441608 -9.368941 -0.921542 -7.841309 2.816384 -0.121271 2.709304 -1.304515 -0.035210 0.069600 -0.042340 -0.075870 
2.153490 15.405040 -1.849770 1.965193 4.938903 9.590286 -15.276139 10.859376 3.708323 36.336990 -0.178558 -26.303809 -5.740008 8.466142 16.344840 0.048665 6.048137 2.198106 0.200830 0.133820 0.187440 18.843198 -7.832737 4.929570 -39.729641 -0.453576 -45.060093 20.373764 -26.245839 52.960167 -1.456068 -11.011815 0.484250 0.115370 -0.001590 0.070760 -4.206245 -2.068960 -9.529490 17.399172 -10.016455 30.711783 -11.961623 -3.821919 2.105170 3.613787 -4.790764 -10.524798 -9.522301 0.389634 27.345612 -4.631300 0.366530 -9.580450 -25.971405 -6.734739 3.301695 -3.204405 11.059123 -0.133779 9.036968 3.327643 -0.098385 -3.936986 2.909460 0.125000 0.020520 0.018900 0.038270 18.143447 8.868517 8.787393 7.221419 -10.487849 -1.056913 -8.016385 3.431761 -0.110849 2.696543 -1.301768 -0.036170 0.071940 -0.048050 -0.084620 
2.280100 15.359290 -1.870070 1.742501 4.869395 9.541742 -15.326042 10.741828 3.881540 36.878039 -0.075263 -27.441807 -7.352066 9.509025 18.818995 0.065582 6.502031 2.026712 0.224290 0.161230 0.212920 18.828893 -7.737243 4.896150 -40.561393 -0.779411 -44.872726 20.245756 -26.107565 52.648303 -1.452800 -10.944087 0.497561 0.132110 -0.020790 0.070970 -4.118006 -2.102784 -9.597787 16.909366 -9.769483 32.217904 -11.195373 -3.655170 2.098075 3.539413 -4.442310 -10.239544 -8.710572 -0.036779 26.794780 -4.454050 0.223250 -11.182400 -25.912772 -5.935524 3.125496 -2.887998 12.614892 0.006364 8.250075 2.691125 -0.167183 -3.897661 2.907800 0.148230 0.004080 0.040970 0.035810 18.263327 7.913225 8.517207 6.834580 -11.794891 -0.979845 -7.790275 3.337246 -0.091714 2.684095 -1.291885 -0.036380 0.083940 -0.056280 -0.093880 
2.408090 15.326000 -1.899240 1.725024 5.069607 9.239135 -15.360104 10.575670 4.093893 37.357331 -0.034721 -28.617045 -9.328275 10.691536 21.195556 0.113434 7.009331 1.838193 0.235530 0.172840 0.228610 18.828814 -7.665063 4.856229 -41.594732 -1.212227 -44.496036 20.092839 -26.010864 52.337907 -1.443769 -10.888084 0.506276 0.132990 -0.043220 0.073850 -4.070622 -2.041802 -9.696748 16.652511 -9.440545 33.560076 -10.909566 -3.308734 2.313306 3.588643 -3.722051 -10.069471 -7.562270 -0.857643 27.527600 -4.317760 -0.246130 -11.571430 -25.887222 -5.576853 2.997744 -2.885695 13.368523 -0.033151 8.306939 2.356956 -0.167729 -3.882908 2.905749 0.160580 -0.009900 0.058030 0.029770 18.088720 7.181889 8.413821 7.383352 -12.647243 -0.976883 -6.810349 1.640587 -0.056203 2.711360 -1.266754 -0.027350 0.076890 -0.062680 -0.098990 
2.535480 15.305070 -1.928610 1.584181 4.920923 8.765239 -15.396165 10.467006 4.293242 37.725830 0.022943 -29.640912 -10.949345 11.868735 23.598113 0.185660 7.506254 1.658930 0.239070 0.177860 0.241420 18.813126 -7.617611 4.797027 -42.336515 -1.351951 -43.977735 19.922386 -25.624769 51.779717 -1.414795 -10.769006 0.533695 0.126630 -0.065560 0.076970 -4.002984 -2.015999 -9.784629 16.278327 -8.979991 35.185138 -10.562936 -2.814536 2.504300 3.689771 -2.963403 -10.094481 -6.454624 -1.471559 28.582985 -4.407100 -0.404320 -11.336220 -26.180390 -5.772238 3.046271 -2.470002 13.719108 0.025827 7.727228 3.548381 -0.190709 -3.889092 2.883486 0.162750 -0.019420 0.073230 0.023570 18.149936 7.029608 8.482139 7.376034 -13.459657 -0.915115 -5.102541 0.042483 -0.100062 2.739677 -1.241822 -0.014570 0.061550 -0.071330 -0.101750 
2.661140 15.283540 -1.961240 1.607063 4.967748 8.303594 -15.429106 10.343022 4.496632 38.013375 -0.003459 -30.981268 -12.309710 13.075368 26.259840 0.250674 8.014902 1.482600 0.264560 0.204840 0.253200 18.805673 -7.576075 4.714443 -43.120208 -1.574922 -43.397276 19.359587 -25.241388 51.594691 -1.402849 -10.671925 0.558125 0.137470 -0.082570 0.076270 -3.949231 -1.997187 -9.850538 15.803019 -8.749297 36.811485 -10.195290 -2.588275 2.646266 3.583556 -2.894861 -10.076968 -6.403878 -2.135632 28.861410 -3.754900 -1.276010 -12.312800 -26.049268 -5.680009 3.034613 -2.548178 13.862806 0.040561 6.667982 5.037200 -0.290250 -3.878515 2.850760 0.184470 -0.043560 0.094330 0.032220 18.241808 7.040580 8.494923 7.023578 -13.755731 -0.881355 -3.608820 -2.064563 -0.178619 2.768461 -1.209132 -0.007010 0.069280 -0.083960 -0.099030 
2.782450 15.269300 -2.004340 1.644176 4.843730 7.602787 -15.474435 10.269037 4.700176 38.273583 -0.050652 -32.315374 -13.328078 14.359116 29.216480 0.330568 8.547496 1.298719 0.269080 0.210570 0.264120 18.778584 -7.538712 4.609798 -43.649040 -1.671281 -42.804840 18.521795 -24.561606 51.326374 -1.366855 -10.513763 0.599644 0.135190 -0.101150 0.070430 -3.853203 -2.048837 -9.915833 14.905225 -8.276527 38.911799 -9.645560 -2.227101 2.805290 3.559105 -2.640775 -10.143610 -6.124305 -2.304256 29.575679 -3.556160 -1.344590 -12.847020 -26.012588 -5.783466 3.080329 -2.523901 14.030121 -0.007293 6.331092 6.106111 -0.333665 -3.881554 2.814956 0.204790 -0.061360 0.111470 0.025810 18.287991 7.161703 8.566215 7.222663 -14.270634 -0.998917 -2.018956 -3.631646 -0.308813 2.789484 -1.168240 -0.006360 0.073710 -0.085910 -0.105590 
2.904600 15.262830 -2.031590 1.528971 4.674275 7.169452 -15.514004 10.199942 4.910733 38.771212 0.006055 -33.250041 -14.392986 15.575672 31.450205 0.415065 9.042623 1.131729 0.268950 0.208070 0.279160 18.752427 -7.533116 4.471377 -43.910952 -1.718198 -41.984200 17.837728 -23.618029 50.293972 -1.295748 -10.249222 0.667259 0.131810 -0.116190 0.068650 -3.770438 -2.061284 -9.971862 14.307038 -7.678358 40.060211 -9.159214 -1.745111 3.046963 3.627135 -2.279367 -10.012380 -5.695332 -2.467682 30.707858 -3.868910 -1.227990 -12.692870 -25.985929 -5.508503 2.956123 -3.050248 14.170876 -0.157127 6.969750 6.181382 -0.265572 -3.892694 2.798969 0.214060 -0.067700 0.121700 0.015620 18.127323 6.870723 8.418459 7.600886 -14.592723 -1.171702 0.239052 -4.631532 -0.577092 2.795638 -1.137559 -0.006450 0.072370 -0.085700 -0.114900 
